<svg width="20" height="21" viewBox="0 0 20 21" fill="none" xmlns="http://www.w3.org/2000/svg">
<g opacity="0.969855" clip-path="url(#clip0_6_72)">
<path d="M19.7693 9.65383C17.8115 6.33154 14.1601 4.11108 10 4.11108C5.83821 4.11108 2.18766 6.3331 0.23078 9.65383C0.0796862 9.91022 0 10.2024 0 10.5C0 10.7976 0.0796862 11.0898 0.23078 11.3462C2.18859 14.6684 5.83995 16.8889 10 16.8889C14.1618 16.8889 17.8124 14.6668 19.7693 11.3461C19.9203 11.0897 20 10.7976 20 10.5C20 10.2024 19.9203 9.91021 19.7693 9.65383ZM10 15.2222C6.43904 15.2222 3.33019 13.3229 1.66668 10.5C3.19991 7.89813 5.96102 6.08088 9.17231 5.81223C9.51245 6.1624 9.72224 6.6399 9.72224 7.16664C9.72224 8.24053 8.85168 9.11108 7.77779 9.11108C6.70391 9.11108 5.83335 8.24053 5.83335 7.16664L5.83338 7.16518C5.47898 7.82785 5.27779 8.58483 5.27779 9.38886C5.27779 11.9969 7.392 14.1111 10 14.1111C12.608 14.1111 14.7222 11.9969 14.7222 9.38886C14.7222 8.3114 14.3611 7.31841 13.7537 6.52376C15.6842 7.32768 17.292 8.73282 18.3334 10.5C16.6699 13.3229 13.561 15.2222 10 15.2222Z" fill="black" stroke="black" stroke-width="0.0347222"/>
</g>
<defs>
<clipPath id="clip0_6_72">
<rect width="20" height="20" fill="white" transform="translate(0 0.5)"/>
</clipPath>
</defs>
</svg>
